<svg width="20" height="20" viewBox="0 0 20 20" fill="none" xmlns="http://www.w3.org/2000/svg">
<path fill-rule="evenodd" clip-rule="evenodd" d="M4 3H16L18 7V17H2V7L4 3ZM4.236 7H8V8C8 8.26522 8.10536 8.51957 8.29289 8.70711C8.48043 8.89464 8.73478 9 9 9H11C11.2652 9 11.5196 8.89464 11.7071 8.70711C11.8946 8.51957 12 8.26522 12 8V7H15.764L14.764 5H5.236L4.236 7ZM16 9H13.83C13.623 9.58507 13.2397 10.0916 12.7329 10.4498C12.226 10.8079 11.6206 11.0002 11 11H9C8.37938 11.0002 7.77397 10.8079 7.26715 10.4498C6.76032 10.0916 6.37701 9.58507 6.17 9H4V15H16V9Z" fill="#EFEFF1"/>
</svg>
