<svg width="4" height="17" viewBox="0 0 4 17" fill="none" xmlns="http://www.w3.org/2000/svg">
<path d="M2 16.9502C1.46957 16.9502 0.96086 16.7395 0.585787 16.3644C0.210714 15.9893 0 15.4806 0 14.9502C0 14.4198 0.210714 13.9111 0.585787 13.536C0.96086 13.1609 1.46957 12.9502 2 12.9502C2.53043 12.9502 3.03914 13.1609 3.41421 13.536C3.78929 13.9111 4 14.4198 4 14.9502C4 15.4806 3.78929 15.9893 3.41421 16.3644C3.03914 16.7395 2.53043 16.9502 2 16.9502ZM2 10.9502C1.46957 10.9502 0.96086 10.7395 0.585787 10.3644C0.210714 9.98934 0 9.48063 0 8.9502C0 8.41976 0.210714 7.91106 0.585787 7.53598C0.96086 7.16091 1.46957 6.9502 2 6.9502C2.53043 6.9502 3.03914 7.16091 3.41421 7.53598C3.78929 7.91106 4 8.41976 4 8.9502C4 9.48063 3.78929 9.98934 3.41421 10.3644C3.03914 10.7395 2.53043 10.9502 2 10.9502ZM0 2.9502C0 3.48063 0.210714 3.98934 0.585787 4.36441C0.96086 4.73948 1.46957 4.9502 2 4.9502C2.53043 4.9502 3.03914 4.73948 3.41421 4.36441C3.78929 3.98934 4 3.48063 4 2.9502C4 2.41976 3.78929 1.91105 3.41421 1.53598C3.03914 1.16091 2.53043 0.950195 2 0.950195C1.46957 0.950195 0.96086 1.16091 0.585787 1.53598C0.210714 1.91105 0 2.41976 0 2.9502Z" fill="#EFEFF1"/>
</svg>
