<svg width="20" height="20" viewBox="0 0 20 20" fill="none" xmlns="http://www.w3.org/2000/svg">
<path fill-rule="evenodd" clip-rule="evenodd" d="M13.8308 15.5271C12.13 16.7989 10.0106 17.3793 7.89918 17.1514C5.78774 16.9236 3.84096 15.9044 2.45065 14.2991C1.06034 12.6937 0.329708 10.6213 0.405787 8.49899C0.481866 6.37665 1.35901 4.3619 2.8607 2.86021C4.36238 1.35853 6.37714 0.481378 8.49948 0.405299C10.6218 0.32922 12.6942 1.05986 14.2996 2.45016C15.9049 3.84047 16.9241 5.78725 17.1519 7.89869C17.3798 10.0101 16.7994 12.1295 15.5276 13.8303L19.2488 17.5503L17.552 19.2483L13.832 15.5283L13.8308 15.5271ZM14.8004 8.7999C14.8004 10.3912 14.1682 11.9173 13.043 13.0425C11.9178 14.1678 10.3917 14.7999 8.80039 14.7999C7.20909 14.7999 5.68297 14.1678 4.55775 13.0425C3.43253 11.9173 2.80039 10.3912 2.80039 8.7999C2.80039 7.2086 3.43253 5.68248 4.55775 4.55726C5.68297 3.43204 7.20909 2.7999 8.80039 2.7999C10.3917 2.7999 11.9178 3.43204 13.043 4.55726C14.1682 5.68248 14.8004 7.2086 14.8004 8.7999Z" fill="#EFEFF1"/>
</svg>
